<svg width="50" height="50" viewBox="0 0 50 50" fill="none" xmlns="http://www.w3.org/2000/svg">
<path d="M34.8312 41.15L33.4979 30.475C33.309 28.963 32.5741 27.572 31.4316 26.5638C30.2891 25.5555 28.8175 24.9994 27.2937 25H22.7021C21.179 25.0004 19.7085 25.557 18.5668 26.5652C17.4252 27.5733 16.6909 28.9637 16.5021 30.475L15.1667 41.15C15.0934 41.7365 15.1457 42.3318 15.3202 42.8966C15.4946 43.4613 15.7872 43.9824 16.1786 44.4254C16.5699 44.8683 17.051 45.2229 17.5899 45.4657C18.1287 45.7084 18.7131 45.8338 19.3042 45.8333H30.6958C31.2867 45.8335 31.8708 45.7079 32.4095 45.465C32.9481 45.2222 33.429 44.8675 33.8201 44.4246C34.2111 43.9817 34.5036 43.4606 34.6779 42.8961C34.8522 42.3315 34.9045 41.7363 34.8312 41.15V41.15Z" stroke="#027368" stroke-width="4.16667" stroke-linecap="round" stroke-linejoin="round"/>
<path d="M25 16.6667C28.4518 16.6667 31.25 13.8685 31.25 10.4167C31.25 6.96491 28.4518 4.16669 25 4.16669C21.5482 4.16669 18.75 6.96491 18.75 10.4167C18.75 13.8685 21.5482 16.6667 25 16.6667Z" stroke="#027368" stroke-width="4.16667"/>
<path d="M8.33333 22.9167C10.6345 22.9167 12.5 21.0512 12.5 18.75C12.5 16.4489 10.6345 14.5834 8.33333 14.5834C6.03215 14.5834 4.16667 16.4489 4.16667 18.75C4.16667 21.0512 6.03215 22.9167 8.33333 22.9167Z" stroke="#027368" stroke-width="4.16667"/>
<path d="M41.6667 22.9167C43.9679 22.9167 45.8333 21.0512 45.8333 18.75C45.8333 16.4489 43.9679 14.5834 41.6667 14.5834C39.3655 14.5834 37.5 16.4489 37.5 18.75C37.5 21.0512 39.3655 22.9167 41.6667 22.9167Z" stroke="#027368" stroke-width="4.16667"/>
<path d="M8.33333 29.1667H7.69583C6.7095 29.1666 5.75511 29.5163 5.00245 30.1538C4.24979 30.7913 3.74767 31.675 3.58542 32.6479L2.89167 36.8146C2.79211 37.4116 2.8238 38.0231 2.98452 38.6065C3.14524 39.19 3.43115 39.7315 3.82235 40.1933C4.21355 40.6551 4.70065 41.0261 5.24978 41.2805C5.79891 41.535 6.39687 41.6668 7.00208 41.6667H14.5833M41.6667 29.1667H42.3042C43.2905 29.1666 44.2449 29.5163 44.9975 30.1538C45.7502 30.7913 46.2523 31.675 46.4146 32.6479L47.1083 36.8146C47.2079 37.4116 47.1762 38.0231 47.0155 38.6065C46.8548 39.19 46.5688 39.7315 46.1776 40.1933C45.7864 40.6551 45.2993 41.0261 44.7502 41.2805C44.2011 41.535 43.6031 41.6668 42.9979 41.6667H35.4167" stroke="#027368" stroke-width="4.16667" stroke-linecap="round" stroke-linejoin="round"/>
</svg>
