<svg width="50" height="50" viewBox="0 0 50 50" fill="none" xmlns="http://www.w3.org/2000/svg">
<path d="M39.5833 4.16669H18.75C16.4521 4.16669 14.5833 6.03544 14.5833 8.33335V19.9709L4.77709 29.7771C4.48582 30.0685 4.28747 30.4396 4.20712 30.8437C4.12677 31.2478 4.16803 31.6666 4.32567 32.0472C4.48332 32.4278 4.75028 32.7532 5.0928 32.9821C5.43532 33.211 5.83802 33.3333 6.25 33.3334V43.75C6.25 44.3026 6.4695 44.8325 6.8602 45.2232C7.2509 45.6139 7.7808 45.8334 8.33334 45.8334H41.6667C42.2192 45.8334 42.7491 45.6139 43.1398 45.2232C43.5305 44.8325 43.75 44.3026 43.75 43.75V8.33335C43.75 6.03544 41.8813 4.16669 39.5833 4.16669ZM22.9167 41.6667H10.4167V30.0292L16.6667 23.7792L22.9167 30.0292V41.6667ZM39.5833 41.6667H27.0833V33.3334C27.4958 33.3343 27.8992 33.2126 28.2423 32.9839C28.5855 32.7551 28.853 32.4295 29.0108 32.0485C29.1686 31.6675 29.2097 31.2481 29.1287 30.8437C29.0478 30.4393 28.8485 30.0681 28.5563 29.7771L18.75 19.9709V8.33335H39.5833V41.6667Z" fill="#027368"/>
<path d="M22.9166 12.5H27.0833V16.6667H22.9166V12.5ZM31.25 12.5H35.4166V16.6667H31.25V12.5ZM31.25 20.8979H35.4166V25H31.25V20.8979ZM31.25 29.1667H35.4166V33.3333H31.25V29.1667ZM14.5833 31.25H18.75V35.4167H14.5833V31.25Z" fill="#027368"/>
</svg>
