<svg width="50" height="50" viewBox="0 0 50 50" fill="none" xmlns="http://www.w3.org/2000/svg">
<path fill-rule="evenodd" clip-rule="evenodd" d="M6.25 42.1875V21.875H9.375V42.1875C9.375 42.6019 9.53962 42.9993 9.83265 43.2924C10.1257 43.5854 10.5231 43.75 10.9375 43.75H39.0625C39.4769 43.75 39.8743 43.5854 40.1674 43.2924C40.4604 42.9993 40.625 42.6019 40.625 42.1875V21.875H43.75V42.1875C43.75 43.4307 43.2561 44.623 42.3771 45.5021C41.498 46.3811 40.3057 46.875 39.0625 46.875H10.9375C9.6943 46.875 8.50201 46.3811 7.62294 45.5021C6.74386 44.623 6.25 43.4307 6.25 42.1875ZM40.625 7.8125V18.75L34.375 12.5V7.8125C34.375 7.3981 34.5396 7.00067 34.8326 6.70765C35.1257 6.41462 35.5231 6.25 35.9375 6.25H39.0625C39.4769 6.25 39.8743 6.41462 40.1674 6.70765C40.4604 7.00067 40.625 7.3981 40.625 7.8125Z" fill="#027368"/>
<path fill-rule="evenodd" clip-rule="evenodd" d="M22.7906 4.68748C23.3766 4.10163 24.1714 3.77252 25 3.77252C25.8286 3.77252 26.6233 4.10163 27.2094 4.68748L47.9812 25.4562C48.2746 25.7496 48.4395 26.1476 48.4395 26.5625C48.4395 26.9774 48.2746 27.3753 47.9812 27.6687C47.6878 27.9621 47.2899 28.127 46.875 28.127C46.4601 28.127 46.0621 27.9621 45.7687 27.6687L25 6.89685L4.23124 27.6687C3.93784 27.9621 3.53991 28.127 3.12499 28.127C2.71007 28.127 2.31214 27.9621 2.01874 27.6687C1.72534 27.3753 1.56052 26.9774 1.56052 26.5625C1.56052 26.1476 1.72534 25.7496 2.01874 25.4562L22.7906 4.68748Z" fill="#027368"/>
</svg>
